<mxfile host="app.diagrams.net" modified="2022-09-13T23:50:38.990Z" agent="5.0 (Macintosh; Intel Mac OS X 10_15_7) AppleWebKit/537.36 (KHTML, like Gecko) Chrome/105.0.0.0 Safari/537.36" etag="KQDgLnLfv9S-o_wDLlps" version="20.3.0" type="github">
  <diagram id="-0lJotmOZFSewgprpl_Y" name="第 1 页">
    <mxGraphModel dx="970" dy="585" grid="1" gridSize="10" guides="1" tooltips="1" connect="1" arrows="1" fold="1" page="1" pageScale="1" pageWidth="827" pageHeight="1169" math="0" shadow="0">
      <root>
        <mxCell id="0" />
        <mxCell id="1" parent="0" />
        <mxCell id="Lykgya6q-O9wlwdBUTNx-1" value="" style="rounded=1;whiteSpace=wrap;html=1;" vertex="1" parent="1">
          <mxGeometry x="190" y="140" width="460" height="190" as="geometry" />
        </mxCell>
        <mxCell id="Lykgya6q-O9wlwdBUTNx-2" value="props&lt;br&gt;state" style="rounded=0;whiteSpace=wrap;html=1;" vertex="1" parent="1">
          <mxGeometry x="240" y="200" width="70" height="60" as="geometry" />
        </mxCell>
        <mxCell id="Lykgya6q-O9wlwdBUTNx-3" value="生命周期" style="rounded=0;whiteSpace=wrap;html=1;" vertex="1" parent="1">
          <mxGeometry x="367.5" y="190" width="105" height="70" as="geometry" />
        </mxCell>
        <mxCell id="Lykgya6q-O9wlwdBUTNx-4" value="Render" style="rounded=0;whiteSpace=wrap;html=1;" vertex="1" parent="1">
          <mxGeometry x="540" y="200" width="60" height="60" as="geometry" />
        </mxCell>
        <mxCell id="Lykgya6q-O9wlwdBUTNx-5" value="setState" style="ellipse;whiteSpace=wrap;html=1;aspect=fixed;" vertex="1" parent="1">
          <mxGeometry x="385" y="240" width="70" height="70" as="geometry" />
        </mxCell>
        <mxCell id="Lykgya6q-O9wlwdBUTNx-7" value="" style="endArrow=classic;html=1;rounded=0;" edge="1" parent="1">
          <mxGeometry width="50" height="50" relative="1" as="geometry">
            <mxPoint x="140" y="224.5" as="sourcePoint" />
            <mxPoint x="240" y="224.5" as="targetPoint" />
          </mxGeometry>
        </mxCell>
        <mxCell id="Lykgya6q-O9wlwdBUTNx-8" value="" style="curved=1;endArrow=classic;html=1;rounded=0;exitX=0;exitY=0.5;exitDx=0;exitDy=0;entryX=0;entryY=0.5;entryDx=0;entryDy=0;" edge="1" parent="1" source="Lykgya6q-O9wlwdBUTNx-5" target="Lykgya6q-O9wlwdBUTNx-2">
          <mxGeometry width="50" height="50" relative="1" as="geometry">
            <mxPoint x="130" y="330" as="sourcePoint" />
            <mxPoint x="180" y="280" as="targetPoint" />
            <Array as="points">
              <mxPoint x="240" y="285" />
              <mxPoint x="180" y="270" />
            </Array>
          </mxGeometry>
        </mxCell>
        <mxCell id="Lykgya6q-O9wlwdBUTNx-9" value="" style="endArrow=classic;html=1;rounded=0;" edge="1" parent="1">
          <mxGeometry width="50" height="50" relative="1" as="geometry">
            <mxPoint x="600" y="224.5" as="sourcePoint" />
            <mxPoint x="700" y="224.5" as="targetPoint" />
          </mxGeometry>
        </mxCell>
        <mxCell id="Lykgya6q-O9wlwdBUTNx-10" value="React 组件" style="text;html=1;align=center;verticalAlign=middle;resizable=0;points=[];autosize=1;strokeColor=none;fillColor=none;" vertex="1" parent="1">
          <mxGeometry x="380" y="150" width="80" height="30" as="geometry" />
        </mxCell>
      </root>
    </mxGraphModel>
  </diagram>
</mxfile>
